<svg width="400" height="400" viewBox="0 0 400 400" fill="none" xmlns="http://www.w3.org/2000/svg">
<path d="M339.974 70.9854C359.124 82.0416 365.685 106.528 354.629 125.678L234.515 333.722C223.459 352.871 198.972 359.433 179.823 348.376C160.673 337.32 154.111 312.833 165.168 293.684L285.282 85.6403C296.338 66.4904 320.825 59.9292 339.974 70.9854Z" fill="url(#paint0_linear_68_2)"/>
<path fill-rule="evenodd" clip-rule="evenodd" d="M114.402 85.64C103.345 66.4902 78.8585 59.929 59.7086 70.9851C40.5588 82.0413 33.9976 106.528 45.0537 125.678L165.168 333.721C176.224 352.871 200.711 359.432 219.86 348.376C227.749 343.822 234.353 336.639 238.834 329.669C243.315 322.699 277.351 259.087 277.351 259.087C272.013 264.425 258.133 276.703 245.321 283.109C237.597 286.971 229.485 281.327 223.09 273.895L114.402 85.64Z" fill="#5C7DF6"/>
<defs>
<linearGradient id="paint0_linear_68_2" x1="326.091" y1="108.322" x2="240.676" y2="258.814" gradientUnits="userSpaceOnUse">
<stop offset="0.235192" stop-color="#9AB0FD"/>
<stop offset="1" stop-color="#C3D5AD"/>
</linearGradient>
</defs>
</svg>
